<svg width="765" height="798" viewBox="0 0 765 798" fill="none" xmlns="http://www.w3.org/2000/svg">
<path fill-rule="evenodd" clip-rule="evenodd" d="M129.502 942.91C220.509 956.735 313.167 957.43 404.931 952.41C441.248 949.691 477.676 949.201 513.963 952.677C535.405 954.272 629.419 961.459 637.1 942.252C632.266 839.977 622.474 736.831 592.437 638.468C580.084 603.542 569.475 574.553 545.365 545.651C537.767 537.76 521.38 521.209 511.99 515.812C503.856 511.136 500.456 512.804 495.785 504.907C491.143 496.183 487.719 481.612 481.129 475.456C474.418 469.188 464.473 471.431 452.147 473.45C454.411 442.844 440.286 435.05 420.825 429.23C386.619 416.173 352.836 422.733 344.227 464.378C328.264 464.378 319.297 471.248 309.603 477.849C305.64 480.548 308.397 487.423 303.663 489.544C294.906 492.662 279.43 491.899 270.998 495.736C232.655 513.188 198.504 538.495 176.076 575.454C125.795 654.364 91.2559 820.587 97.2327 914.113C94.614 918.22 98.2352 924.109 99.1556 928.525C100.317 932.366 104.08 934.922 108.006 934.485C113.486 940.378 121.961 941.69 129.502 942.91Z" fill="white"/>
<path fill-rule="evenodd" clip-rule="evenodd" d="M506.196 513.498C505.637 513.187 506.129 512.388 506.69 512.652C533.68 525.315 554.385 547.531 568.954 573.2C584.04 599.779 592.638 629.956 600.05 659.451L600.318 660.517C608.222 692.069 614.943 723.948 620.994 755.904C627.122 788.265 632.04 820.827 635.997 853.523C637.955 869.69 639.7 885.885 641.061 902.112C641.741 910.222 642.358 918.337 642.914 926.456C643.135 929.703 643.344 932.95 643.523 936.2L643.652 938.638C643.763 940.849 644.025 943.066 643.479 945.247C643.008 947.128 642.012 948.83 641.137 950.557C639.405 953.969 634.658 953.407 632.791 950.557L632.249 949.727C631.012 947.814 629.984 946.036 629.595 943.656C629.22 941.35 629.206 938.935 629.037 936.607C628.727 932.323 628.463 928.035 628.162 923.75C627.531 914.729 626.821 905.714 626.035 896.706C624.481 878.923 622.814 861.156 620.767 843.421C617.129 811.904 612.564 780.47 607.183 749.203C601.925 718.659 595.278 688.425 588.344 658.23L587.626 655.106C575.485 602.386 556.773 541.672 506.196 513.498ZM218.717 719.938C218.915 719.411 219.769 719.289 219.914 719.938C221.732 728.125 221.911 736.556 222.189 744.938C222.463 753.206 222.452 761.512 222.332 769.785C221.887 800.19 221.053 830.569 220.331 860.969C219.97 876.175 219.632 891.384 219.372 906.592C219.273 912.296 219.191 918 219.122 923.704L219.038 931.228C218.997 934.554 218.909 937.839 218.504 941.162C218.236 943.348 217.666 945.432 216.46 947.306C215.604 948.635 214.383 949.31 213.194 950.214L212.971 950.386C211.454 951.585 209.856 951.594 208.354 950.386L207.917 950.041C206.482 948.919 205.241 948.042 204.325 946.266C203.05 943.798 202.846 941.116 202.63 938.397C202.301 934.272 202.519 930.087 202.561 925.951C202.646 917.654 202.761 909.358 202.907 901.061C203.441 870.637 204.497 840.207 206.422 809.837C207.329 795.531 208.558 781.18 210.207 766.933L210.521 764.262C211.022 760.071 211.478 755.804 211.992 751.524C204.317 746.125 197.572 739.575 191.819 732.144C191.395 731.598 192.093 730.831 192.604 731.36C198.482 737.447 205.222 742.299 212.683 746.115C213.905 737.155 215.586 728.243 218.717 719.938ZM346.928 448.733C347.033 448.651 347.198 448.616 347.298 448.733C348.948 450.656 348.613 453.597 348.666 456.034L348.673 456.261C348.791 459.825 348.813 463.377 348.801 466.943L348.764 478.292C348.76 479.853 348.633 481.477 348.713 483.047L348.755 483.654C349.621 484.542 350.024 485.824 349.73 487.113C349.677 488.765 348.813 490.144 347.553 491.011L350.254 494.843L352.957 498.673C358.529 506.576 364.163 514.41 370.034 522.096C376.02 529.933 382.407 537.474 389.09 544.725C392.355 548.269 395.676 551.763 399.074 555.178C400.455 556.567 401.87 557.92 403.269 559.289L404.662 560.665C405.485 561.488 406.52 562.302 407.066 563.345C407.387 563.96 407.46 565.476 407.575 565.727C408.606 567.993 406.847 571.607 403.924 570.476L404.057 570.388C404.589 570.017 404.248 570.012 403.033 570.372C402.267 570.37 401.549 570.193 400.877 569.844L400.677 569.734C399.732 569.254 398.888 568.324 398.12 567.58L397.93 567.399C396.174 565.753 394.5 564.008 392.817 562.288C389.304 558.699 385.87 555.034 382.546 551.271C375.915 543.762 369.628 535.949 363.674 527.893C357.609 519.688 351.972 511.062 347.125 502.082C345.285 498.674 343.598 495.2 341.982 491.686C338.834 490.676 338.104 487.329 338.323 483.558C337.162 480.853 336.116 478.093 335.497 475.273C335.413 474.886 335.909 474.522 336.207 474.86C337.213 476.003 338.145 477.221 339.041 478.47C339.582 475.827 340.266 473.393 340.588 471.842L341.983 464.995C334.121 464.585 325.505 467.815 320.085 473.471C319.794 474.944 318.66 475.998 317.555 477.375C316.293 478.948 315.192 480.714 314.37 482.561C312.549 486.655 313.577 492.687 310.042 495.691C309.673 496.004 309.262 496.221 308.837 496.355C310.514 504.582 309.753 513.646 309.716 521.991L309.715 522.726C309.723 532.066 309.411 541.414 309.051 550.747L308.683 559.983C308.208 572.302 307.899 584.626 309.096 596.877C314.561 592.036 320.211 587.417 326.057 583.016C329.9 580.122 333.82 577.33 337.812 574.643L341.055 572.476C344.942 569.87 348.923 567.188 353.178 565.321C358.744 562.881 364.037 563.72 369.41 566.223C374.762 568.716 379.953 571.612 385.202 574.315C390.541 577.062 395.891 579.787 401.237 582.519C404.779 584.329 409.969 585.962 412.566 589.294C412.732 588.557 412.925 587.822 413.151 587.089C412.893 585.973 412.993 584.766 413.619 583.616C422.347 567.576 430.423 551.154 438.442 534.751C442.501 526.45 446.361 518.051 450.427 509.755L454.381 501.675C455.041 500.329 455.704 498.984 456.37 497.641C457.368 495.631 458.406 493.64 459.415 491.634C459.841 490.787 460.375 489.945 460.79 489.09L460.987 488.661C460.997 488.638 461.954 485.626 461.215 485.913L461.151 485.944C460.773 486.158 460.471 485.682 460.715 485.379C461.762 484.086 463.219 485.232 463.816 486.429C465.461 489.725 462.447 494.899 461.288 498.054L461.224 498.231C457.626 508.416 453.552 518.409 449.378 528.368C441.375 547.462 432.777 566.262 424.199 585.096L424.097 585.419C425.926 584.017 427.88 582.744 429.552 581.506C433.772 578.38 438.114 575.408 442.45 572.445C450.401 567.013 458.567 561.938 466.869 557.064L468.531 556.092C472.678 553.676 476.786 551.717 481.708 552.442C486.281 553.116 490.533 555.572 494.664 557.568L495.091 557.773L507.856 563.842C506.491 558.4 505.014 552.984 503.472 547.588C500.466 537.063 497.157 526.627 493.57 516.284C490.219 506.621 486.597 497.063 482.766 487.581L481.612 484.735C480.05 480.831 478.497 476.574 474.032 475.372C469.571 474.17 464.453 475.952 460.375 473.408C460.004 473.177 460.05 472.566 460.499 472.453L463.016 471.819C467.74 470.644 473.279 469.461 477.747 470.604C482.608 471.85 486.63 475.93 488.989 480.172C491.612 484.891 493.46 490.172 495.451 495.204L495.766 495.997C498.05 501.691 500.248 507.42 502.35 513.185C506.553 524.708 510.38 536.37 513.843 548.136C515.512 553.807 517.096 559.505 518.618 565.217C519.055 566.86 519.777 568.852 520.369 570.929C521.047 571.591 521.69 572.33 522.292 573.172C523.292 574.57 522.574 576.208 521.332 577.045C521.284 578.474 520.966 579.819 520.207 580.971C517.243 585.471 509.406 584.312 509.725 578.263C509.773 577.337 510.134 576.453 510.68 575.706L510.665 575.585L510.603 575.363C509.242 574.711 507.876 573.984 506.436 573.273L493.039 566.653C489.159 564.735 484.858 561.772 480.543 561.041C476.521 560.36 472.277 563.357 468.82 565.165L468.596 565.281C460.24 569.565 451.947 573.99 443.686 578.451C439.653 580.63 435.673 582.899 431.655 585.103C428.296 586.947 424.671 589.593 420.896 590.633C419.283 591.887 417.367 591.719 415.828 590.771C416.531 595.128 416.488 599.6 416.704 604.056C416.994 610.012 417.039 615.984 417.135 621.948L417.174 624.184C417.427 637.37 417.563 650.558 417.613 663.746C417.791 710.708 417.272 757.683 417.151 804.644C417.09 828.239 416.623 851.854 416.01 875.44C415.75 885.435 415.206 895.417 414.62 905.396L414.297 910.839C413.613 922.324 413.21 933.935 411.084 945.265C410.807 946.743 408.306 946.78 408.061 945.265C406.104 933.125 405.995 920.718 405.619 908.435L405.54 905.98C405.088 892.792 404.873 879.613 404.919 866.418C405.086 819.438 406.307 772.487 407.306 725.52C407.808 701.922 408.146 678.314 408.927 654.724C409.317 642.92 409.758 631.124 410.282 619.325C410.516 614.057 410.741 608.794 411.091 603.534L411.249 601.28C411.358 599.809 411.445 598.357 411.552 596.917C406.799 598.654 402.452 595.439 398.177 593.24C393.249 590.704 388.323 588.165 383.393 585.635L378.459 583.109L368.586 578.07C364.14 575.801 360.715 573.543 355.973 576.205C338.89 585.789 323.192 598.543 308.966 611.925C306.238 614.492 300.474 613.802 299.783 609.501C296.831 591.126 298.626 572.484 300.133 554.054L300.689 547.211C301.362 539.038 302.095 530.865 303.072 522.726C303.509 519.085 303.944 515.446 304.426 511.812L304.796 509.087C305.398 504.78 305.791 500.498 307.074 496.367C306.67 496.236 306.28 496.021 305.932 495.691C302.074 492.03 303.934 485.679 305.694 481.325C307.432 477.027 310.083 473.276 313.402 470.048C314.126 469.343 315.146 468.889 316.172 468.865C324.22 463.533 333.048 460.872 342.237 463.782C342.495 462.548 342.759 461.316 343.036 460.087L343.318 458.859C344.032 455.81 344.298 450.773 346.928 448.733ZM429.41 930.286C431.907 929.6 434.641 930.323 436.471 932.154C438.301 933.984 439.025 936.717 438.337 939.215C437.993 940.445 437.371 941.512 436.471 942.418C435.63 943.254 434.65 943.85 433.529 944.207L433.268 944.285L432.86 944.455C431.608 944.791 430.356 944.791 429.105 944.455C427.908 944.119 426.869 943.514 425.987 942.638C425.112 941.757 424.507 940.718 424.171 939.52C423.834 938.268 423.834 937.016 424.171 935.764L424.341 935.356C424.686 934.127 425.308 933.059 426.207 932.154C427.112 931.254 428.18 930.631 429.41 930.286ZM577.695 681.408C578.105 680.937 578.771 681.54 578.516 682.041C574.626 689.668 570.29 697.24 566.029 704.673C566.37 706.733 566.709 708.776 567.098 710.768C568.758 719.257 570.792 727.594 572.117 736.164C576.882 766.971 579.356 798.111 581.478 829.194C583.607 860.388 583.88 891.596 584.199 922.852C584.227 925.561 582.144 928.709 579.352 929.219C578.073 929.453 577.117 929.408 575.841 929.219C572.936 928.792 571.118 925.463 570.994 922.852C570.161 905.383 569.04 887.937 567.741 870.496C565.44 839.575 564.033 808.573 562.174 777.62L561.519 766.802C560.817 755.079 560.174 743.349 559.964 731.609C559.825 723.832 560.241 716.056 559.985 708.288C559.749 701.115 559.022 693.317 560.603 686.27C560.662 686.006 561.079 685.939 561.2 686.192C562.844 689.653 563.885 693.415 564.687 697.255C568.924 691.896 573.239 686.526 577.695 681.408ZM300.171 491.951C300.766 491.906 300.742 492.8 300.171 492.866C291.857 493.831 283.824 497.215 275.974 500.091L275.301 500.336C267.37 503.214 259.637 506.561 252.195 510.55C237.645 518.35 224.284 528.407 212.471 539.92C165.308 585.881 143.814 652.159 128.064 714.443C119.314 749.047 113.091 784.237 109.058 819.696C107.063 837.233 105.653 854.836 104.831 872.467C104.411 881.503 104.145 890.547 104.035 899.592C103.977 904.225 103.961 908.859 103.966 913.492C103.969 915.615 104.348 918.289 103.78 920.35C103.254 922.26 101.768 923.941 100.67 925.533C99.368 927.421 97.0281 927.321 95.708 925.533L95.2212 924.882C93.8134 923.014 92.4359 921.228 92.2348 918.787C92.0195 916.171 92.1714 913.473 92.1616 910.845C92.1393 905.549 92.2048 900.253 92.3107 894.959C92.5148 884.811 92.9146 874.668 93.5089 864.535C94.7154 843.973 96.7014 823.453 99.5449 803.052C104.599 766.79 112.176 730.874 122.099 695.634C131.462 662.389 142.553 629.243 158.353 598.449C173.024 569.857 192.27 543.259 217.665 523.277C229.474 513.985 242.33 506.24 256.191 500.409C263.181 497.467 270.522 495.066 277.987 493.697C285.37 492.343 292.72 492.532 300.171 491.951ZM430.841 871.525C432.16 871.515 433.63 871.805 434.762 872.534L436.273 873.702C436.683 874.228 437.09 874.757 437.496 875.286C438.442 876.518 438.567 878.511 438.37 879.979C438.325 880.959 438.034 881.87 437.496 882.715L436.346 884.206C435.239 885.108 434.317 885.751 432.978 886.185C432.277 886.412 431.603 886.459 430.931 886.425L430.707 886.41L430.841 886.429L430.606 886.402C430.387 886.383 430.168 886.36 429.947 886.33C429.798 886.311 429.647 886.3 429.497 886.279C429.353 886.267 429.214 886.261 429.068 886.275C427.366 886.435 425.654 885.469 424.446 884.36C423.357 883.36 422.379 881.24 422.531 879.738L422.596 879.11C422.711 878.05 422.805 877.633 423.254 876.569C423.69 875.534 424.299 874.621 425.129 873.849C426.717 872.371 428.661 871.54 430.841 871.525ZM425.571 793.997C427.831 791.534 431.712 791.353 434.514 792.842C435.197 793.206 435.824 793.789 436.426 794.275C437.942 795.501 438.538 797.713 438.621 799.577C438.704 801.42 437.732 803.608 436.426 804.88L436.109 805.187C435.328 805.947 434.209 806.607 433.117 806.808C431.355 807.132 429.875 807.122 428.235 806.429C426.825 805.835 425.611 804.879 424.784 803.581L424.65 803.362C424.594 803.271 424.54 803.178 424.49 803.084L424.417 802.941C422.847 799.921 423.269 796.503 425.571 793.997ZM426.742 716.06C427.761 715.74 428.779 715.695 429.798 715.924C430.49 715.925 431.135 716.1 431.733 716.446C432.382 716.628 432.946 716.957 433.424 717.433C433.999 717.773 434.458 718.231 434.799 718.807C435.477 719.548 435.934 720.416 436.171 721.414L436.445 723.452L436.171 725.49L435.398 727.322C435.186 727.599 434.972 727.876 434.756 728.152C434.415 728.73 433.955 729.19 433.377 729.532C433.002 729.905 432.571 730.184 432.09 730.378C430.383 731.602 428.11 732.001 426.087 731.443C424.887 731.108 423.844 730.499 422.96 729.621C422.081 728.736 421.473 727.693 421.137 726.493L420.999 725.534C420.82 724.248 420.792 723.536 421.156 721.901C421.316 721.182 421.779 720.168 422.021 719.741C423.058 717.919 424.751 716.67 426.742 716.06ZM515.233 659.99C518.159 659.97 521.085 659.975 524.011 660.008L526.206 660.037C529.88 660.095 533.027 659.716 535.916 662.266C538.013 664.116 537.089 667.22 535.099 668.615C532.084 670.725 528.301 669.664 524.835 669.431C521.179 669.186 517.52 668.982 513.86 668.818C506.774 668.501 499.685 668.299 492.591 668.268C485.513 668.238 478.424 668.305 471.347 668.419C464.145 668.536 456.647 669.207 449.486 668.461C448.502 668.359 448.281 667.065 449.252 666.729C456 664.394 463.591 663.637 470.663 662.745C477.957 661.823 485.251 661.171 492.591 660.748C500.13 660.316 507.681 660.043 515.233 659.99ZM426.728 637.06L426.97 637.065C428.258 637.068 429.463 637.371 430.587 637.974L430.827 638.108L432.373 639.302C433.32 640.256 433.975 641.38 434.338 642.674L434.611 644.706C434.651 645.758 434.431 646.739 433.953 647.65C433.644 648.598 433.118 649.417 432.373 650.109C431.681 650.854 430.861 651.381 429.914 651.689C429.073 652.131 428.173 652.352 427.211 652.352L426.97 652.348C425.591 652.343 424.305 651.995 423.114 651.304L421.567 650.109C420.62 649.156 419.965 648.032 419.602 646.737L419.329 644.706C419.29 643.654 419.508 642.672 419.988 641.762C420.295 640.814 420.822 639.994 421.567 639.302C422.259 638.557 423.078 638.03 424.026 637.723C424.867 637.281 425.767 637.06 426.728 637.06ZM449.381 457.548C451.027 455.163 454.01 457.284 453.583 459.201C453.696 464.586 453.971 469.812 455.197 475.086C455.757 477.501 456.492 479.918 457.626 482.13L458.102 483.062C459.569 485.96 460.708 488.694 458.732 491.874C457.801 493.373 456.118 494.499 454.293 494.42C446.202 494.071 445.09 482.808 444.599 476.521C444.091 470.045 445.669 462.928 449.381 457.548Z" fill="black"/>
<path fill-rule="evenodd" clip-rule="evenodd" d="M514.628 337.192C513.128 324.014 515.069 296.471 515.199 294.797C516.021 284.218 511.065 242.444 501.695 246.293C485.979 233.849 465.045 231.102 445.471 229.789C404.812 227.062 361.558 233.322 330.162 260.687C314.636 274.899 299.52 295.568 300.735 317.09C286.628 337.49 266.741 365.473 284.317 389.322C290.292 396.942 299.787 399.78 307.293 405.55C322.389 417.728 331.861 435.205 347.1 447.31C387.476 483.595 456.033 491.175 495.702 449.904C526.377 420.014 521.417 375.297 516.021 337.192C512.394 311.573 517.553 362.9 514.628 337.192Z" fill="white"/>
<path fill-rule="evenodd" clip-rule="evenodd" d="M391.156 173.907C402.03 171.713 413.196 170.347 424.3 170.758L425.157 170.791C433.512 171.125 444.093 171.864 451.382 176.723C451.801 176.302 452.475 176.086 453.087 176.378C461.748 180.513 471.275 183.502 480.395 186.473C489.473 189.429 498.891 191.38 508.406 192.167C511.986 192.463 515.05 196.329 512.783 199.796C512.244 200.622 511.718 201.457 511.195 202.294C512.07 202.203 512.945 202.108 513.82 202.02C516.699 201.73 519.575 204.803 519.405 207.607C519.298 209.37 519.108 211.112 518.827 212.834C519.923 212.811 521.013 212.975 522.066 213.42C527.4 215.673 527.028 222.026 526.629 226.859C526.076 233.567 523.568 240.671 518.91 245.692C522.388 249.304 524.849 253.618 526.318 258.741C527.383 262.482 527.976 266.467 527.683 270.362L527.59 271.527C527.228 275.754 526.509 280.433 523.469 283.473C521.908 285.04 519.986 285.612 518.153 285.431C519.261 295.17 519.972 304.965 520.641 314.726L520.954 319.391C522.446 341.949 523.567 364.654 523.274 387.249C523.001 408.366 518.829 428.862 505.88 446.007C494.085 461.619 477.152 473.128 457.995 477.503C447.671 479.865 437.132 480.032 426.683 478.527C421.618 477.796 416.519 476.674 411.712 474.905C406.391 472.94 402.566 470.049 398.986 465.716C397.293 463.66 398.108 459.285 401.48 459.696C406.58 460.315 411.236 461.06 416.125 462.569L416.825 462.79C421.695 464.35 426.739 465.514 431.83 466.008C442.259 467.018 452.847 466.001 462.837 462.838C479.102 457.683 493.111 446.195 502.09 431.76C512.748 414.65 513.953 395.226 513.799 375.552C513.634 353.963 512.932 332.362 511.786 310.796L511.591 307.202C510.985 296.104 510.4 284.999 509.885 273.894C509.725 270.41 509.481 266.899 509.041 263.423C505.023 261.068 501.421 257.821 499.074 253.816C494.358 255.766 489.398 257.174 484.835 258.295C474.264 260.895 463.29 261.526 452.531 259.898C449.629 261.097 446.669 262.151 443.664 263.058C442.852 263.418 442.039 263.772 441.228 264.119C433.983 267.22 426.633 269.846 418.985 271.769L417.107 272.237C413.082 273.23 408.71 274.207 404.426 274.514C403.723 274.785 402.964 275.015 402.134 275.217C398.234 276.165 394.186 276.464 390.188 276.13C386.293 275.803 383.479 271.866 385.624 268.181C387.192 265.492 388.774 262.81 390.369 260.134C384.817 262.447 379.084 264.37 373.302 266C367.465 267.645 361.544 269.031 355.615 270.306C352.445 270.982 349.262 271.581 346.1 272.256C343.836 272.737 340.36 272.988 338.513 274.479C336.473 276.116 335.895 279.934 335.121 282.289C334.104 285.347 333.149 288.419 332.279 291.526C330.545 297.727 329.124 304.018 328.023 310.371C326.922 316.732 326.183 323.155 325.772 329.6C325.362 336.037 325.542 342.516 324.881 348.925C324.525 352.325 320.876 354.074 318.18 351.698C317.864 351.419 317.545 351.138 317.229 350.853L316.759 350.423C314.453 348.333 312.216 346.118 310.371 343.624C310.037 343.164 309.716 342.683 309.417 342.195C309.368 342.195 309.326 342.182 309.278 342.147L308.766 341.762C303.132 337.568 293.72 332.1 288.226 339.067C286.476 341.287 285.579 344.113 284.836 346.84L283.53 351.72C282.686 354.905 281.892 358.108 281.427 361.368C280.375 368.669 280.904 377.085 285.927 382.937C287.934 385.278 290.699 386.95 293.784 387.389C295.506 387.626 297.205 387.333 298.912 387.117C300.647 386.901 302.318 387.249 304.053 387.082C306.812 386.81 308.017 390.113 306.986 392.189C306.428 393.303 305.773 394.265 305.028 395.08C305.627 395.596 306.199 396.153 306.749 396.738C308.379 397.261 309.841 398.382 310.935 399.866C311.82 401.064 312.279 402.367 312.357 403.74C312.453 404.081 312.537 404.429 312.614 404.785L314.109 407.21C314.437 407.742 314.765 408.268 315.093 408.784C318.897 414.775 323.119 419.847 328.364 424.626C333.415 429.224 338.896 433.341 343.641 438.274L344.2 438.859C348.623 443.521 353.285 449.163 351.554 455.941C351.108 457.683 348.677 458.937 347.089 457.76C341.983 453.97 339.412 447.964 335.08 443.366C330.621 438.629 325.682 434.372 321.21 429.649C316.981 425.19 313.645 420.139 311.13 414.58C310.127 415.688 308.665 416.475 306.637 416.781C303.154 417.304 299.908 415.263 298.39 412.246C297.414 412.678 296.418 413.068 295.414 413.375C290.134 414.991 286.812 409.118 288.804 404.778C289.87 402.451 291.2 400.43 292.852 398.731C287.689 398.02 282.437 395.352 279.044 392.022C270.533 383.655 269.362 371.08 271.278 359.898C272.295 353.969 274.05 347.971 276.328 342.404C276.725 341.436 277.15 340.461 277.616 339.499C277.359 339.492 277.094 339.381 276.927 339.165C275.387 337.061 273.514 335.34 272.371 332.985C271.319 330.826 270.149 328.638 269.32 326.388C267.614 321.783 266.778 316.586 266.221 311.716C265.071 301.747 265.516 291.84 267.043 281.933C269.64 265.06 275.915 248.912 285.16 234.743C284.656 234.479 284.174 234.16 283.725 233.782L283.503 233.588L283.142 233.262C280.504 230.875 280.731 226.4 283.142 223.982L283.903 223.219C284.867 222.261 285.698 221.502 287.255 220.46C287.485 220.306 287.72 220.161 287.957 220.026C287.142 218.519 286.859 216.758 287.427 214.815C289.406 208.046 299.144 208.286 305.317 211.238C312.145 205.142 319.718 199.851 327.925 195.567C347.472 185.367 369.575 178.254 391.156 173.907ZM290.114 352.186C293.764 350.994 298.613 353.496 301.894 355C306.052 356.909 309.591 359.731 313.018 362.713C314.725 364.203 315.031 366.642 314.607 368.725C314.564 368.934 314.523 369.15 314.474 369.366C314.021 371.588 311.541 373.337 309.347 373.274C304.756 373.149 302.569 369.185 299.97 365.827C299.665 366.37 299.282 366.872 298.807 367.248L298.487 367.499C297.408 368.32 296.22 368.976 294.795 368.913C293.785 368.864 292.817 368.606 291.925 368.14C289.696 366.962 288.714 364.078 289.319 361.73C289.696 360.253 290.559 359.097 291.688 358.296L291.267 358.008C290.367 357.381 289.546 356.721 288.906 355.746L288.762 355.516H288.818C288.121 354.318 288.575 352.687 290.114 352.186Z" fill="black"/>
<path fill-rule="evenodd" clip-rule="evenodd" d="M462.044 422.295C456.912 423.781 451.404 423.914 446.173 422.379C441.429 420.986 436.557 417.922 433.065 413.867C429.964 410.265 427.955 405.887 428.034 401.215C428.042 400.681 428.233 400.236 428.527 399.89C428.843 399.518 429.284 399.262 429.757 399.151C430.243 399.037 430.757 399.077 431.195 399.276C431.591 399.456 431.93 399.762 432.143 400.209C432.679 400.914 433.214 401.608 433.75 402.284C438.065 407.612 442.244 411.594 448.732 413.022C452.252 413.797 455.768 413.454 458.994 412.271C462.447 411.005 465.568 408.78 468.015 405.932C469.12 404.644 470.425 404.119 471.701 404.11C473.147 404.1 474.577 404.772 475.654 405.846C476.712 406.902 477.421 408.337 477.485 409.838C477.542 411.155 477.112 412.531 475.969 413.759C472.203 417.803 467.324 420.765 462.044 422.295ZM461.885 355.559C467.146 358.757 475.161 366.213 469.502 374.141C462.841 381.131 453.25 373.117 448.524 369.492C444.142 366.683 439.219 373.908 443.284 377.188C477.434 402.474 491.293 356.395 464.546 351.799C461.601 351.293 460.507 354.57 461.885 355.559ZM412.678 341.488C410.987 340.407 408.998 340.036 406.794 341.039C405.072 341.822 402.051 344.434 399.948 347.867C398.51 350.215 397.49 352.97 397.702 355.84C397.752 356.507 397.505 356.998 397.117 357.362C396.81 357.649 396.367 357.86 395.846 357.926C395.405 357.982 394.91 357.931 394.508 357.805C393.743 357.567 393.338 357.07 393.185 356.665C391.713 352.755 392.348 348.392 393.997 344.456C396.224 339.144 400.267 334.694 402.916 333.26C407.45 330.804 412.798 330.691 417.337 333.193C421.202 335.322 423.618 338.76 426.021 342.264C426.532 343.009 427.039 343.748 427.563 344.475C428.613 345.93 428.718 347.374 428.311 348.612C427.861 349.984 426.712 351.141 425.275 351.747C423.947 352.307 422.406 352.385 421.043 351.81C419.891 351.324 418.833 350.377 418.164 348.77C417.038 346.063 415.161 343.076 412.678 341.488ZM498.545 347.511C497.387 348.114 496.481 348.296 495.197 347.911C494.486 347.698 493.784 347.289 493.235 346.739C492.69 346.194 492.297 345.517 492.144 344.765C491.769 342.911 490.754 341.174 489.308 340.043C488.072 339.075 486.512 338.562 484.782 338.852C482.914 339.163 481.135 340.361 479.91 341.773C479.501 342.245 479.18 342.782 478.857 343.315C478.253 344.312 477.667 345.238 476.834 345.97C476.518 346.249 476.043 346.442 475.582 346.442C475.395 346.442 475.205 346.411 475.024 346.355C473.166 344.489 472.808 343.074 472.868 341.67C472.931 340.199 473.511 338.708 474.449 337.318C476.648 334.056 480.825 331.382 483.643 330.776C487.503 329.946 491.335 330.942 494.409 333.098C497.571 335.316 499.914 338.76 500.644 342.641C500.82 343.576 500.745 344.585 500.389 345.46C500.041 346.315 499.435 347.047 498.545 347.511ZM421.19 306.712C418.874 308.969 416.132 309.319 413.359 309.63C411.818 309.804 410.588 309.945 409.377 310.218C406.05 310.969 402.761 312.1 399.761 313.729C396.624 315.433 393.206 317.487 390.747 320.118C390.162 320.744 389.611 321.401 389.059 322.06C388.556 322.66 388.071 323.238 387.56 323.796C386.973 324.436 386.416 325.107 385.861 325.776C385.518 326.341 385.451 326.48 385.382 326.624C385.278 326.842 385.157 327.085 385.019 327.345C384.83 327.703 384.609 328.094 384.377 328.448C383.991 329.096 383.784 329.275 383.605 329.355C383.308 329.487 383.027 329.552 382.754 329.517C382.498 329.484 382.257 329.361 382.019 329.159C380.829 328.155 380.479 326.506 380.515 324.755C380.569 322.099 381.549 319.158 382.452 317.35C384.552 313.149 387.464 308.782 390.966 305.647C394.961 302.068 399.333 299.359 404.354 297.492C407.474 296.332 411.087 295.266 414.486 295.401C416.933 295.498 419.269 296.225 421.198 298.042C422.383 299.157 422.952 300.743 422.952 302.328C422.952 303.945 422.361 305.571 421.19 306.712ZM503.256 327.379C503.108 327.62 502.904 327.787 502.678 327.887C502.44 327.991 502.174 328.022 501.919 327.979C501.666 327.936 501.425 327.821 501.233 327.645C501.05 327.477 500.911 327.253 500.848 326.98C499.31 320.225 496.324 315.2 489.951 311.959C486.816 310.365 483.211 309.352 479.799 308.544C478.807 308.309 477.759 308.157 476.704 308.003C473.396 307.52 470.065 306.967 467.909 304.293C466.61 302.683 466.065 300.623 466.373 298.74C466.663 296.966 467.699 295.34 469.583 294.365C474.273 291.94 480.101 294.32 484.837 296.347C485.188 296.497 485.533 296.645 485.871 296.787C490.502 298.743 494.726 301.323 498.199 305.014C500.954 307.942 503.506 312.271 504.534 316.724C505.39 320.428 505.189 324.21 503.256 327.379Z" fill="black"/>
</svg>
