<svg width="390" height="398" viewBox="0 0 390 398" fill="none" xmlns="http://www.w3.org/2000/svg">
<mask id="path-1-inside-1_47_863" fill="white">
<path d="M156.324 199.117C145.278 199.151 136.203 208.179 137.842 219.104C140.335 235.713 145.825 251.065 153.798 263.275C164.886 280.255 179.868 289.768 195.448 289.721C211.028 289.674 225.93 280.07 236.876 263.024C244.747 250.766 250.109 235.381 252.463 218.758C254.011 207.823 244.86 198.849 233.815 198.883L195.069 199L156.324 199.117Z"/>
</mask>
<path d="M156.324 199.117C145.278 199.151 136.203 208.179 137.842 219.104C140.335 235.713 145.825 251.065 153.798 263.275C164.886 280.255 179.868 289.768 195.448 289.721C211.028 289.674 225.93 280.07 236.876 263.024C244.747 250.766 250.109 235.381 252.463 218.758C254.011 207.823 244.86 198.849 233.815 198.883L195.069 199L156.324 199.117Z" fill="#D9D9D9" stroke="black" stroke-width="2" mask="url(#path-1-inside-1_47_863)"/>
<mask id="path-2-inside-2_47_863" fill="white">
<path d="M151.41 205.9C143.89 205.923 137.752 212.049 138.383 219.543C139.049 227.448 140.259 234.724 141.926 240.642C144.518 249.84 148.003 255.002 151.615 254.991C155.226 254.98 158.668 249.797 161.183 240.583C162.801 234.656 163.951 227.372 164.55 219.464C165.119 211.966 158.93 205.877 151.41 205.9V205.9V205.9Z"/>
</mask>
<path d="M151.41 205.9C143.89 205.923 137.752 212.049 138.383 219.543C139.049 227.448 140.259 234.724 141.926 240.642C144.518 249.84 148.003 255.002 151.615 254.991C155.226 254.98 158.668 249.797 161.183 240.583C162.801 234.656 163.951 227.372 164.55 219.464C165.119 211.966 158.93 205.877 151.41 205.9V205.9V205.9Z" fill="#D9D9D9" stroke="black" stroke-width="2" mask="url(#path-2-inside-2_47_863)"/>
<mask id="path-3-inside-3_47_863" fill="white">
<path d="M241.952 205.9C234.432 205.923 228.295 212.049 228.926 219.543C229.591 227.448 230.801 234.724 232.469 240.642C235.061 249.84 238.546 255.002 242.157 254.991C245.769 254.98 249.21 249.797 251.726 240.583C253.344 234.656 254.493 227.372 255.093 219.464C255.661 211.966 249.473 205.877 241.952 205.9V205.9V205.9Z"/>
</mask>
<path d="M241.952 205.9C234.432 205.923 228.295 212.049 228.926 219.543C229.591 227.448 230.801 234.724 232.469 240.642C235.061 249.84 238.546 255.002 242.157 254.991C245.769 254.98 249.21 249.797 251.726 240.583C253.344 234.656 254.493 227.372 255.093 219.464C255.661 211.966 249.473 205.877 241.952 205.9V205.9V205.9Z" fill="#D9D9D9" stroke="black" stroke-width="2" mask="url(#path-3-inside-3_47_863)"/>
<path d="M152.407 179.775C149.523 176.159 147.242 170.059 145.575 162.37C143.935 154.803 142.991 146.198 142.467 137.996C141.923 129.456 148.954 122.265 157.873 122.265L192.769 122.265L226.471 122.265C235.366 122.265 242.673 129.48 242.64 138.248C242.61 146.495 242.302 155.086 241.174 162.631C240.026 170.316 238.112 176.276 235.323 179.775C231.266 184.863 224.698 187.249 216.695 188.216C210.741 188.935 204.614 188.819 198.804 188.709C196.746 188.67 194.727 188.632 192.769 188.632C190.772 188.632 188.755 188.671 186.728 188.711C181.136 188.82 175.472 188.93 169.972 188.22C162.626 187.271 156.519 184.933 152.407 179.775Z" fill="black" stroke="#D9D9D9" stroke-width="8"/>
<g filter="url(#filter0_i_47_863)">
<ellipse cx="175.451" cy="155.996" rx="8.23093" ry="10.5528" fill="white"/>
</g>
<path d="M216.165 283.311C217.398 282.906 218.239 281.723 218.018 280.444C217.266 276.076 214.836 272.489 211.11 269.345C206.781 265.692 201.04 263.759 195.151 263.971C189.262 264.183 183.706 266.523 179.705 270.476C176.384 273.758 174.349 276.818 173.887 280.841C173.709 282.395 174.787 283.761 176.273 284.249V284.249L178.716 284.873C178.513 284.821 180.185 276.594 183.303 273.512C186.422 270.431 190.753 268.607 195.344 268.441C199.935 268.276 204.999 270.849 208.373 273.696C211.748 276.544 214.854 284.065 213.926 284.692L215.446 283.664C215.668 283.514 215.91 283.395 216.165 283.311V283.311Z" fill="black"/>
<g filter="url(#filter1_i_47_863)">
<ellipse cx="213.312" cy="155.996" rx="8.23093" ry="10.5528" fill="white"/>
</g>
<g filter="url(#filter2_f_47_863)">
<path d="M365 199C365 291.075 289.27 366 195.5 366C101.73 366 26 291.075 26 199C26 106.925 101.73 32 195.5 32C289.27 32 365 106.925 365 199Z" stroke="white" stroke-width="24"/>
</g>
<path d="M369 199C369 293.336 291.426 370 195.5 370C99.5736 370 22 293.336 22 199C22 104.664 99.5736 28 195.5 28C291.426 28 369 104.664 369 199Z" stroke="black" stroke-width="16"/>
<defs>
<filter id="filter0_i_47_863" x="167.22" y="145.443" width="16.4619" height="21.1057" filterUnits="userSpaceOnUse" color-interpolation-filters="sRGB">
<feFlood flood-opacity="0" result="BackgroundImageFix"/>
<feBlend mode="normal" in="SourceGraphic" in2="BackgroundImageFix" result="shape"/>
<feColorMatrix in="SourceAlpha" type="matrix" values="0 0 0 0 0 0 0 0 0 0 0 0 0 0 0 0 0 0 127 0" result="hardAlpha"/>
<feOffset dy="2"/>
<feComposite in2="hardAlpha" operator="arithmetic" k2="-1" k3="1"/>
<feColorMatrix type="matrix" values="0 0 0 0 0.348611 0 0 0 0 0.348611 0 0 0 0 0.348611 0 0 0 1 0"/>
<feBlend mode="normal" in2="shape" result="effect1_innerShadow_47_863"/>
</filter>
<filter id="filter1_i_47_863" x="205.082" y="145.443" width="16.4619" height="21.1057" filterUnits="userSpaceOnUse" color-interpolation-filters="sRGB">
<feFlood flood-opacity="0" result="BackgroundImageFix"/>
<feBlend mode="normal" in="SourceGraphic" in2="BackgroundImageFix" result="shape"/>
<feColorMatrix in="SourceAlpha" type="matrix" values="0 0 0 0 0 0 0 0 0 0 0 0 0 0 0 0 0 0 127 0" result="hardAlpha"/>
<feOffset dy="2"/>
<feComposite in2="hardAlpha" operator="arithmetic" k2="-1" k3="1"/>
<feColorMatrix type="matrix" values="0 0 0 0 0.348611 0 0 0 0 0.348611 0 0 0 0 0.348611 0 0 0 1 0"/>
<feBlend mode="normal" in2="shape" result="effect1_innerShadow_47_863"/>
</filter>
<filter id="filter2_f_47_863" x="-5.6" y="0.4" width="402.2" height="397.2" filterUnits="userSpaceOnUse" color-interpolation-filters="sRGB">
<feFlood flood-opacity="0" result="BackgroundImageFix"/>
<feBlend mode="normal" in="SourceGraphic" in2="BackgroundImageFix" result="shape"/>
<feGaussianBlur stdDeviation="9.8" result="effect1_foregroundBlur_47_863"/>
</filter>
</defs>
</svg>
